<?xml version="1.0" standalone="no"?>
<!DOCTYPE svg PUBLIC "-//W3C//DTD SVG 20010904//EN"
 "http://www.w3.org/TR/2001/REC-SVG-20010904/DTD/svg10.dtd">
<svg version="1.0" xmlns="http://www.w3.org/2000/svg"
 width="260.000000pt" height="260.000000pt" viewBox="0 0 260.000000 260.000000"
 preserveAspectRatio="xMidYMid meet">
<metadata>
Created by potrace 1.11, written by Peter Selinger 2001-2013
</metadata>
<g transform="translate(0.000000,260.000000) scale(0.100000,-0.100000)"
fill="#000000" stroke="none">
<path d="M1160 1537 c14 -6 28 -16 32 -22 4 -5 8 -112 8 -236 0 -230 -3 -250
-40 -261 -8 -3 47 -8 122 -12 76 -4 146 -5 156 -2 13 5 22 20 26 48 8 50 2 59
-16 21 -16 -34 -79 -51 -136 -37 -44 11 -50 26 -51 152 l-1 92 63 0 c70 0 82
-5 96 -40 9 -24 10 -23 11 10 0 19 3 46 6 60 6 21 4 23 -7 13 -8 -8 -42 -13
-91 -13 l-79 0 3 103 3 102 51 3 c62 4 102 -10 114 -40 l9 -23 1 25 c0 14 3
35 6 48 l6 22 -158 -1 c-128 0 -154 -3 -134 -12z"/>
<path d="M777 1087 c-78 -115 -117 -182 -117 -200 0 -19 60 -118 190 -312
l190 -285 264 0 264 0 188 288 c103 158 189 297 192 309 3 15 -30 72 -114 197
-66 96 -122 174 -126 173 -4 -1 -95 -132 -203 -290 -167 -247 -194 -291 -184
-305 7 -10 3 -8 -8 3 -18 17 -167 233 -353 512 -30 45 -57 82 -60 83 -3 0 -59
-78 -123 -173z"/>
<path d="M1800 537 l-196 -302 -298 -3 c-219 -2 -304 -6 -315 -15 -14 -10 -14
-10 -3 5 12 14 -11 53 -179 305 -105 158 -195 291 -198 296 -4 4 -31 -27 -60
-70 l-52 -77 61 -89 c34 -49 124 -183 202 -298 l141 -209 402 0 402 0 45 68
c24 37 104 156 178 265 74 109 145 212 157 231 l21 33 -54 81 c-30 45 -56 82
-57 81 -1 0 -90 -136 -197 -302z"/>
</g>
</svg>
